solid 06_pawl_arm
  facet normal 0.000000 -1.000000 0.000000
    outer loop
      vertex -6.000000 -1.500000 0.000000
      vertex 6.000000 -1.500000 0.000000
      vertex 6.000000 -1.500000 6.000000
    endloop
  endfacet
  facet normal 0.000000 -1.000000 0.000000
    outer loop
      vertex -6.000000 -1.500000 0.000000
      vertex 6.000000 -1.500000 6.000000
      vertex -6.000000 -1.500000 6.000000
    endloop
  endfacet
  facet normal 0.000000 1.000000 0.000000
    outer loop
      vertex 6.000000 1.500000 0.000000
      vertex -6.000000 1.500000 0.000000
      vertex -6.000000 1.500000 6.000000
    endloop
  endfacet
  facet normal 0.000000 1.000000 -0.000000
    outer loop
      vertex 6.000000 1.500000 0.000000
      vertex -6.000000 1.500000 6.000000
      vertex 6.000000 1.500000 6.000000
    endloop
  endfacet
  facet normal -1.000000 0.000000 0.000000
    outer loop
      vertex -6.000000 1.500000 0.000000
      vertex -6.000000 -1.500000 0.000000
      vertex -6.000000 -1.500000 6.000000
    endloop
  endfacet
  facet normal -1.000000 0.000000 0.000000
    outer loop
      vertex -6.000000 1.500000 0.000000
      vertex -6.000000 -1.500000 6.000000
      vertex -6.000000 1.500000 6.000000
    endloop
  endfacet
  facet normal 1.000000 0.000000 0.000000
    outer loop
      vertex 6.000000 -1.500000 0.000000
      vertex 6.000000 1.500000 0.000000
      vertex 6.000000 1.500000 6.000000
    endloop
  endfacet
  facet normal 1.000000 0.000000 0.000000
    outer loop
      vertex 6.000000 -1.500000 0.000000
      vertex 6.000000 1.500000 6.000000
      vertex 6.000000 -1.500000 6.000000
    endloop
  endfacet
  facet normal 0.000000 0.000000 1.000000
    outer loop
      vertex -6.000000 -1.500000 6.000000
      vertex 6.000000 -1.500000 6.000000
      vertex 6.000000 1.500000 6.000000
    endloop
  endfacet
  facet normal 0.000000 0.000000 1.000000
    outer loop
      vertex -6.000000 -1.500000 6.000000
      vertex 6.000000 1.500000 6.000000
      vertex -6.000000 1.500000 6.000000
    endloop
  endfacet
  facet normal 0.000000 0.000000 -1.000000
    outer loop
      vertex 6.000000 -1.500000 0.000000
      vertex -6.000000 -1.500000 0.000000
      vertex -6.000000 1.500000 0.000000
    endloop
  endfacet
  facet normal 0.000000 0.000000 -1.000000
    outer loop
      vertex 6.000000 -1.500000 0.000000
      vertex -6.000000 1.500000 0.000000
      vertex 6.000000 1.500000 0.000000
    endloop
  endfacet
  facet normal 0.680414 0.680414 0.272166
    outer loop
      vertex 10.000000 0.000000 0.000000
      vertex 8.000000 2.000000 0.000000
      vertex 8.000000 0.000000 5.000000
    endloop
  endfacet
  facet normal 0.000000 0.000000 -1.000000
    outer loop
      vertex 8.000000 0.000000 0.000000
      vertex 8.000000 2.000000 0.000000
      vertex 10.000000 0.000000 0.000000
    endloop
  endfacet
  facet normal -0.680414 0.680414 0.272166
    outer loop
      vertex 8.000000 2.000000 0.000000
      vertex 6.000000 0.000000 0.000000
      vertex 8.000000 0.000000 5.000000
    endloop
  endfacet
  facet normal 0.000000 0.000000 -1.000000
    outer loop
      vertex 8.000000 0.000000 0.000000
      vertex 6.000000 0.000000 0.000000
      vertex 8.000000 2.000000 0.000000
    endloop
  endfacet
  facet normal -0.680414 -0.680414 0.272166
    outer loop
      vertex 6.000000 0.000000 0.000000
      vertex 8.000000 -2.000000 0.000000
      vertex 8.000000 0.000000 5.000000
    endloop
  endfacet
  facet normal -0.000000 0.000000 -1.000000
    outer loop
      vertex 8.000000 0.000000 0.000000
      vertex 8.000000 -2.000000 0.000000
      vertex 6.000000 0.000000 0.000000
    endloop
  endfacet
  facet normal 0.680414 -0.680414 0.272166
    outer loop
      vertex 8.000000 -2.000000 0.000000
      vertex 10.000000 -0.000000 0.000000
      vertex 8.000000 0.000000 5.000000
    endloop
  endfacet
  facet normal 0.000000 -0.000000 -1.000000
    outer loop
      vertex 8.000000 0.000000 0.000000
      vertex 10.000000 -0.000000 0.000000
      vertex 8.000000 -2.000000 0.000000
    endloop
  endfacet
endsolid 06_pawl_arm
