solid 07_plunger_shaft
  facet normal 0.995185 0.098017 0.000000
    outer loop
      vertex 7.000000 0.000000 0.000000
      vertex 6.865497 1.365632 0.000000
      vertex 6.865497 1.365632 25.000000
    endloop
  endfacet
  facet normal 0.995185 0.098017 -0.000000
    outer loop
      vertex 7.000000 0.000000 0.000000
      vertex 6.865497 1.365632 25.000000
      vertex 7.000000 0.000000 25.000000
    endloop
  endfacet
  facet normal 0.000000 0.000000 1.000000
    outer loop
      vertex 0.000000 0.000000 25.000000
      vertex 7.000000 0.000000 25.000000
      vertex 6.865497 1.365632 25.000000
    endloop
  endfacet
  facet normal 0.000000 0.000000 -1.000000
    outer loop
      vertex 0.000000 0.000000 0.000000
      vertex 6.865497 1.365632 0.000000
      vertex 7.000000 0.000000 0.000000
    endloop
  endfacet
  facet normal 0.956940 0.290285 0.000000
    outer loop
      vertex 6.865497 1.365632 0.000000
      vertex 6.467157 2.678784 0.000000
      vertex 6.467157 2.678784 25.000000
    endloop
  endfacet
  facet normal 0.956940 0.290285 -0.000000
    outer loop
      vertex 6.865497 1.365632 0.000000
      vertex 6.467157 2.678784 25.000000
      vertex 6.865497 1.365632 25.000000
    endloop
  endfacet
  facet normal 0.000000 0.000000 1.000000
    outer loop
      vertex 0.000000 0.000000 25.000000
      vertex 6.865497 1.365632 25.000000
      vertex 6.467157 2.678784 25.000000
    endloop
  endfacet
  facet normal 0.000000 0.000000 -1.000000
    outer loop
      vertex 0.000000 0.000000 0.000000
      vertex 6.467157 2.678784 0.000000
      vertex 6.865497 1.365632 0.000000
    endloop
  endfacet
  facet normal 0.881921 0.471397 0.000000
    outer loop
      vertex 6.467157 2.678784 0.000000
      vertex 5.820287 3.888992 0.000000
      vertex 5.820287 3.888992 25.000000
    endloop
  endfacet
  facet normal 0.881921 0.471397 -0.000000
    outer loop
      vertex 6.467157 2.678784 0.000000
      vertex 5.820287 3.888992 25.000000
      vertex 6.467157 2.678784 25.000000
    endloop
  endfacet
  facet normal 0.000000 0.000000 1.000000
    outer loop
      vertex 0.000000 0.000000 25.000000
      vertex 6.467157 2.678784 25.000000
      vertex 5.820287 3.888992 25.000000
    endloop
  endfacet
  facet normal 0.000000 0.000000 -1.000000
    outer loop
      vertex 0.000000 0.000000 0.000000
      vertex 5.820287 3.888992 0.000000
      vertex 6.467157 2.678784 0.000000
    endloop
  endfacet
  facet normal 0.773010 0.634393 0.000000
    outer loop
      vertex 5.820287 3.888992 0.000000
      vertex 4.949747 4.949747 0.000000
      vertex 4.949747 4.949747 25.000000
    endloop
  endfacet
  facet normal 0.773010 0.634393 -0.000000
    outer loop
      vertex 5.820287 3.888992 0.000000
      vertex 4.949747 4.949747 25.000000
      vertex 5.820287 3.888992 25.000000
    endloop
  endfacet
  facet normal 0.000000 0.000000 1.000000
    outer loop
      vertex 0.000000 0.000000 25.000000
      vertex 5.820287 3.888992 25.000000
      vertex 4.949747 4.949747 25.000000
    endloop
  endfacet
  facet normal 0.000000 0.000000 -1.000000
    outer loop
      vertex 0.000000 0.000000 0.000000
      vertex 4.949747 4.949747 0.000000
      vertex 5.820287 3.888992 0.000000
    endloop
  endfacet
  facet normal 0.634393 0.773010 0.000000
    outer loop
      vertex 4.949747 4.949747 0.000000
      vertex 3.888992 5.820287 0.000000
      vertex 3.888992 5.820287 25.000000
    endloop
  endfacet
  facet normal 0.634393 0.773010 -0.000000
    outer loop
      vertex 4.949747 4.949747 0.000000
      vertex 3.888992 5.820287 25.000000
      vertex 4.949747 4.949747 25.000000
    endloop
  endfacet
  facet normal 0.000000 0.000000 1.000000
    outer loop
      vertex 0.000000 0.000000 25.000000
      vertex 4.949747 4.949747 25.000000
      vertex 3.888992 5.820287 25.000000
    endloop
  endfacet
  facet normal 0.000000 0.000000 -1.000000
    outer loop
      vertex 0.000000 0.000000 0.000000
      vertex 3.888992 5.820287 0.000000
      vertex 4.949747 4.949747 0.000000
    endloop
  endfacet
  facet normal 0.471397 0.881921 0.000000
    outer loop
      vertex 3.888992 5.820287 0.000000
      vertex 2.678784 6.467157 0.000000
      vertex 2.678784 6.467157 25.000000
    endloop
  endfacet
  facet normal 0.471397 0.881921 -0.000000
    outer loop
      vertex 3.888992 5.820287 0.000000
      vertex 2.678784 6.467157 25.000000
      vertex 3.888992 5.820287 25.000000
    endloop
  endfacet
  facet normal 0.000000 0.000000 1.000000
    outer loop
      vertex 0.000000 0.000000 25.000000
      vertex 3.888992 5.820287 25.000000
      vertex 2.678784 6.467157 25.000000
    endloop
  endfacet
  facet normal 0.000000 0.000000 -1.000000
    outer loop
      vertex 0.000000 0.000000 0.000000
      vertex 2.678784 6.467157 0.000000
      vertex 3.888992 5.820287 0.000000
    endloop
  endfacet
  facet normal 0.290285 0.956940 0.000000
    outer loop
      vertex 2.678784 6.467157 0.000000
      vertex 1.365632 6.865497 0.000000
      vertex 1.365632 6.865497 25.000000
    endloop
  endfacet
  facet normal 0.290285 0.956940 -0.000000
    outer loop
      vertex 2.678784 6.467157 0.000000
      vertex 1.365632 6.865497 25.000000
      vertex 2.678784 6.467157 25.000000
    endloop
  endfacet
  facet normal 0.000000 0.000000 1.000000
    outer loop
      vertex 0.000000 0.000000 25.000000
      vertex 2.678784 6.467157 25.000000
      vertex 1.365632 6.865497 25.000000
    endloop
  endfacet
  facet normal 0.000000 0.000000 -1.000000
    outer loop
      vertex 0.000000 0.000000 0.000000
      vertex 1.365632 6.865497 0.000000
      vertex 2.678784 6.467157 0.000000
    endloop
  endfacet
  facet normal 0.098017 0.995185 0.000000
    outer loop
      vertex 1.365632 6.865497 0.000000
      vertex 0.000000 7.000000 0.000000
      vertex 0.000000 7.000000 25.000000
    endloop
  endfacet
  facet normal 0.098017 0.995185 -0.000000
    outer loop
      vertex 1.365632 6.865497 0.000000
      vertex 0.000000 7.000000 25.000000
      vertex 1.365632 6.865497 25.000000
    endloop
  endfacet
  facet normal 0.000000 0.000000 1.000000
    outer loop
      vertex 0.000000 0.000000 25.000000
      vertex 1.365632 6.865497 25.000000
      vertex 0.000000 7.000000 25.000000
    endloop
  endfacet
  facet normal 0.000000 0.000000 -1.000000
    outer loop
      vertex 0.000000 0.000000 0.000000
      vertex 0.000000 7.000000 0.000000
      vertex 1.365632 6.865497 0.000000
    endloop
  endfacet
  facet normal -0.098017 0.995185 0.000000
    outer loop
      vertex 0.000000 7.000000 0.000000
      vertex -1.365632 6.865497 0.000000
      vertex -1.365632 6.865497 25.000000
    endloop
  endfacet
  facet normal -0.098017 0.995185 0.000000
    outer loop
      vertex 0.000000 7.000000 0.000000
      vertex -1.365632 6.865497 25.000000
      vertex 0.000000 7.000000 25.000000
    endloop
  endfacet
  facet normal 0.000000 -0.000000 1.000000
    outer loop
      vertex 0.000000 0.000000 25.000000
      vertex 0.000000 7.000000 25.000000
      vertex -1.365632 6.865497 25.000000
    endloop
  endfacet
  facet normal 0.000000 0.000000 -1.000000
    outer loop
      vertex 0.000000 0.000000 0.000000
      vertex -1.365632 6.865497 0.000000
      vertex 0.000000 7.000000 0.000000
    endloop
  endfacet
  facet normal -0.290285 0.956940 0.000000
    outer loop
      vertex -1.365632 6.865497 0.000000
      vertex -2.678784 6.467157 0.000000
      vertex -2.678784 6.467157 25.000000
    endloop
  endfacet
  facet normal -0.290285 0.956940 0.000000
    outer loop
      vertex -1.365632 6.865497 0.000000
      vertex -2.678784 6.467157 25.000000
      vertex -1.365632 6.865497 25.000000
    endloop
  endfacet
  facet normal 0.000000 0.000000 1.000000
    outer loop
      vertex 0.000000 0.000000 25.000000
      vertex -1.365632 6.865497 25.000000
      vertex -2.678784 6.467157 25.000000
    endloop
  endfacet
  facet normal 0.000000 0.000000 -1.000000
    outer loop
      vertex 0.000000 0.000000 0.000000
      vertex -2.678784 6.467157 0.000000
      vertex -1.365632 6.865497 0.000000
    endloop
  endfacet
  facet normal -0.471397 0.881921 0.000000
    outer loop
      vertex -2.678784 6.467157 0.000000
      vertex -3.888992 5.820287 0.000000
      vertex -3.888992 5.820287 25.000000
    endloop
  endfacet
  facet normal -0.471397 0.881921 0.000000
    outer loop
      vertex -2.678784 6.467157 0.000000
      vertex -3.888992 5.820287 25.000000
      vertex -2.678784 6.467157 25.000000
    endloop
  endfacet
  facet normal 0.000000 0.000000 1.000000
    outer loop
      vertex 0.000000 0.000000 25.000000
      vertex -2.678784 6.467157 25.000000
      vertex -3.888992 5.820287 25.000000
    endloop
  endfacet
  facet normal 0.000000 0.000000 -1.000000
    outer loop
      vertex 0.000000 0.000000 0.000000
      vertex -3.888992 5.820287 0.000000
      vertex -2.678784 6.467157 0.000000
    endloop
  endfacet
  facet normal -0.634393 0.773010 0.000000
    outer loop
      vertex -3.888992 5.820287 0.000000
      vertex -4.949747 4.949747 0.000000
      vertex -4.949747 4.949747 25.000000
    endloop
  endfacet
  facet normal -0.634393 0.773010 0.000000
    outer loop
      vertex -3.888992 5.820287 0.000000
      vertex -4.949747 4.949747 25.000000
      vertex -3.888992 5.820287 25.000000
    endloop
  endfacet
  facet normal 0.000000 0.000000 1.000000
    outer loop
      vertex 0.000000 0.000000 25.000000
      vertex -3.888992 5.820287 25.000000
      vertex -4.949747 4.949747 25.000000
    endloop
  endfacet
  facet normal 0.000000 0.000000 -1.000000
    outer loop
      vertex 0.000000 0.000000 0.000000
      vertex -4.949747 4.949747 0.000000
      vertex -3.888992 5.820287 0.000000
    endloop
  endfacet
  facet normal -0.773010 0.634393 0.000000
    outer loop
      vertex -4.949747 4.949747 0.000000
      vertex -5.820287 3.888992 0.000000
      vertex -5.820287 3.888992 25.000000
    endloop
  endfacet
  facet normal -0.773010 0.634393 0.000000
    outer loop
      vertex -4.949747 4.949747 0.000000
      vertex -5.820287 3.888992 25.000000
      vertex -4.949747 4.949747 25.000000
    endloop
  endfacet
  facet normal 0.000000 0.000000 1.000000
    outer loop
      vertex 0.000000 0.000000 25.000000
      vertex -4.949747 4.949747 25.000000
      vertex -5.820287 3.888992 25.000000
    endloop
  endfacet
  facet normal 0.000000 0.000000 -1.000000
    outer loop
      vertex 0.000000 0.000000 0.000000
      vertex -5.820287 3.888992 0.000000
      vertex -4.949747 4.949747 0.000000
    endloop
  endfacet
  facet normal -0.881921 0.471397 0.000000
    outer loop
      vertex -5.820287 3.888992 0.000000
      vertex -6.467157 2.678784 0.000000
      vertex -6.467157 2.678784 25.000000
    endloop
  endfacet
  facet normal -0.881921 0.471397 0.000000
    outer loop
      vertex -5.820287 3.888992 0.000000
      vertex -6.467157 2.678784 25.000000
      vertex -5.820287 3.888992 25.000000
    endloop
  endfacet
  facet normal 0.000000 0.000000 1.000000
    outer loop
      vertex 0.000000 0.000000 25.000000
      vertex -5.820287 3.888992 25.000000
      vertex -6.467157 2.678784 25.000000
    endloop
  endfacet
  facet normal 0.000000 0.000000 -1.000000
    outer loop
      vertex 0.000000 0.000000 0.000000
      vertex -6.467157 2.678784 0.000000
      vertex -5.820287 3.888992 0.000000
    endloop
  endfacet
  facet normal -0.956940 0.290285 0.000000
    outer loop
      vertex -6.467157 2.678784 0.000000
      vertex -6.865497 1.365632 0.000000
      vertex -6.865497 1.365632 25.000000
    endloop
  endfacet
  facet normal -0.956940 0.290285 0.000000
    outer loop
      vertex -6.467157 2.678784 0.000000
      vertex -6.865497 1.365632 25.000000
      vertex -6.467157 2.678784 25.000000
    endloop
  endfacet
  facet normal 0.000000 0.000000 1.000000
    outer loop
      vertex 0.000000 0.000000 25.000000
      vertex -6.467157 2.678784 25.000000
      vertex -6.865497 1.365632 25.000000
    endloop
  endfacet
  facet normal 0.000000 0.000000 -1.000000
    outer loop
      vertex 0.000000 0.000000 0.000000
      vertex -6.865497 1.365632 0.000000
      vertex -6.467157 2.678784 0.000000
    endloop
  endfacet
  facet normal -0.995185 0.098017 0.000000
    outer loop
      vertex -6.865497 1.365632 0.000000
      vertex -7.000000 0.000000 0.000000
      vertex -7.000000 0.000000 25.000000
    endloop
  endfacet
  facet normal -0.995185 0.098017 0.000000
    outer loop
      vertex -6.865497 1.365632 0.000000
      vertex -7.000000 0.000000 25.000000
      vertex -6.865497 1.365632 25.000000
    endloop
  endfacet
  facet normal 0.000000 0.000000 1.000000
    outer loop
      vertex 0.000000 0.000000 25.000000
      vertex -6.865497 1.365632 25.000000
      vertex -7.000000 0.000000 25.000000
    endloop
  endfacet
  facet normal 0.000000 0.000000 -1.000000
    outer loop
      vertex 0.000000 0.000000 0.000000
      vertex -7.000000 0.000000 0.000000
      vertex -6.865497 1.365632 0.000000
    endloop
  endfacet
  facet normal -0.995185 -0.098017 0.000000
    outer loop
      vertex -7.000000 0.000000 0.000000
      vertex -6.865497 -1.365632 0.000000
      vertex -6.865497 -1.365632 25.000000
    endloop
  endfacet
  facet normal -0.995185 -0.098017 0.000000
    outer loop
      vertex -7.000000 0.000000 0.000000
      vertex -6.865497 -1.365632 25.000000
      vertex -7.000000 0.000000 25.000000
    endloop
  endfacet
  facet normal 0.000000 0.000000 1.000000
    outer loop
      vertex 0.000000 0.000000 25.000000
      vertex -7.000000 0.000000 25.000000
      vertex -6.865497 -1.365632 25.000000
    endloop
  endfacet
  facet normal -0.000000 0.000000 -1.000000
    outer loop
      vertex 0.000000 0.000000 0.000000
      vertex -6.865497 -1.365632 0.000000
      vertex -7.000000 0.000000 0.000000
    endloop
  endfacet
  facet normal -0.956940 -0.290285 0.000000
    outer loop
      vertex -6.865497 -1.365632 0.000000
      vertex -6.467157 -2.678784 0.000000
      vertex -6.467157 -2.678784 25.000000
    endloop
  endfacet
  facet normal -0.956940 -0.290285 0.000000
    outer loop
      vertex -6.865497 -1.365632 0.000000
      vertex -6.467157 -2.678784 25.000000
      vertex -6.865497 -1.365632 25.000000
    endloop
  endfacet
  facet normal 0.000000 0.000000 1.000000
    outer loop
      vertex 0.000000 0.000000 25.000000
      vertex -6.865497 -1.365632 25.000000
      vertex -6.467157 -2.678784 25.000000
    endloop
  endfacet
  facet normal 0.000000 0.000000 -1.000000
    outer loop
      vertex 0.000000 0.000000 0.000000
      vertex -6.467157 -2.678784 0.000000
      vertex -6.865497 -1.365632 0.000000
    endloop
  endfacet
  facet normal -0.881921 -0.471397 0.000000
    outer loop
      vertex -6.467157 -2.678784 0.000000
      vertex -5.820287 -3.888992 0.000000
      vertex -5.820287 -3.888992 25.000000
    endloop
  endfacet
  facet normal -0.881921 -0.471397 0.000000
    outer loop
      vertex -6.467157 -2.678784 0.000000
      vertex -5.820287 -3.888992 25.000000
      vertex -6.467157 -2.678784 25.000000
    endloop
  endfacet
  facet normal 0.000000 0.000000 1.000000
    outer loop
      vertex 0.000000 0.000000 25.000000
      vertex -6.467157 -2.678784 25.000000
      vertex -5.820287 -3.888992 25.000000
    endloop
  endfacet
  facet normal 0.000000 0.000000 -1.000000
    outer loop
      vertex 0.000000 0.000000 0.000000
      vertex -5.820287 -3.888992 0.000000
      vertex -6.467157 -2.678784 0.000000
    endloop
  endfacet
  facet normal -0.773010 -0.634393 0.000000
    outer loop
      vertex -5.820287 -3.888992 0.000000
      vertex -4.949747 -4.949747 0.000000
      vertex -4.949747 -4.949747 25.000000
    endloop
  endfacet
  facet normal -0.773010 -0.634393 0.000000
    outer loop
      vertex -5.820287 -3.888992 0.000000
      vertex -4.949747 -4.949747 25.000000
      vertex -5.820287 -3.888992 25.000000
    endloop
  endfacet
  facet normal 0.000000 0.000000 1.000000
    outer loop
      vertex 0.000000 0.000000 25.000000
      vertex -5.820287 -3.888992 25.000000
      vertex -4.949747 -4.949747 25.000000
    endloop
  endfacet
  facet normal 0.000000 0.000000 -1.000000
    outer loop
      vertex 0.000000 0.000000 0.000000
      vertex -4.949747 -4.949747 0.000000
      vertex -5.820287 -3.888992 0.000000
    endloop
  endfacet
  facet normal -0.634393 -0.773010 0.000000
    outer loop
      vertex -4.949747 -4.949747 0.000000
      vertex -3.888992 -5.820287 0.000000
      vertex -3.888992 -5.820287 25.000000
    endloop
  endfacet
  facet normal -0.634393 -0.773010 0.000000
    outer loop
      vertex -4.949747 -4.949747 0.000000
      vertex -3.888992 -5.820287 25.000000
      vertex -4.949747 -4.949747 25.000000
    endloop
  endfacet
  facet normal 0.000000 0.000000 1.000000
    outer loop
      vertex 0.000000 0.000000 25.000000
      vertex -4.949747 -4.949747 25.000000
      vertex -3.888992 -5.820287 25.000000
    endloop
  endfacet
  facet normal 0.000000 0.000000 -1.000000
    outer loop
      vertex 0.000000 0.000000 0.000000
      vertex -3.888992 -5.820287 0.000000
      vertex -4.949747 -4.949747 0.000000
    endloop
  endfacet
  facet normal -0.471397 -0.881921 0.000000
    outer loop
      vertex -3.888992 -5.820287 0.000000
      vertex -2.678784 -6.467157 0.000000
      vertex -2.678784 -6.467157 25.000000
    endloop
  endfacet
  facet normal -0.471397 -0.881921 0.000000
    outer loop
      vertex -3.888992 -5.820287 0.000000
      vertex -2.678784 -6.467157 25.000000
      vertex -3.888992 -5.820287 25.000000
    endloop
  endfacet
  facet normal 0.000000 0.000000 1.000000
    outer loop
      vertex 0.000000 0.000000 25.000000
      vertex -3.888992 -5.820287 25.000000
      vertex -2.678784 -6.467157 25.000000
    endloop
  endfacet
  facet normal 0.000000 0.000000 -1.000000
    outer loop
      vertex 0.000000 0.000000 0.000000
      vertex -2.678784 -6.467157 0.000000
      vertex -3.888992 -5.820287 0.000000
    endloop
  endfacet
  facet normal -0.290285 -0.956940 0.000000
    outer loop
      vertex -2.678784 -6.467157 0.000000
      vertex -1.365632 -6.865497 0.000000
      vertex -1.365632 -6.865497 25.000000
    endloop
  endfacet
  facet normal -0.290285 -0.956940 0.000000
    outer loop
      vertex -2.678784 -6.467157 0.000000
      vertex -1.365632 -6.865497 25.000000
      vertex -2.678784 -6.467157 25.000000
    endloop
  endfacet
  facet normal 0.000000 0.000000 1.000000
    outer loop
      vertex 0.000000 0.000000 25.000000
      vertex -2.678784 -6.467157 25.000000
      vertex -1.365632 -6.865497 25.000000
    endloop
  endfacet
  facet normal 0.000000 0.000000 -1.000000
    outer loop
      vertex 0.000000 0.000000 0.000000
      vertex -1.365632 -6.865497 0.000000
      vertex -2.678784 -6.467157 0.000000
    endloop
  endfacet
  facet normal -0.098017 -0.995185 0.000000
    outer loop
      vertex -1.365632 -6.865497 0.000000
      vertex -0.000000 -7.000000 0.000000
      vertex -0.000000 -7.000000 25.000000
    endloop
  endfacet
  facet normal -0.098017 -0.995185 0.000000
    outer loop
      vertex -1.365632 -6.865497 0.000000
      vertex -0.000000 -7.000000 25.000000
      vertex -1.365632 -6.865497 25.000000
    endloop
  endfacet
  facet normal 0.000000 0.000000 1.000000
    outer loop
      vertex 0.000000 0.000000 25.000000
      vertex -1.365632 -6.865497 25.000000
      vertex -0.000000 -7.000000 25.000000
    endloop
  endfacet
  facet normal 0.000000 0.000000 -1.000000
    outer loop
      vertex 0.000000 0.000000 0.000000
      vertex -0.000000 -7.000000 0.000000
      vertex -1.365632 -6.865497 0.000000
    endloop
  endfacet
  facet normal 0.098017 -0.995185 0.000000
    outer loop
      vertex -0.000000 -7.000000 0.000000
      vertex 1.365632 -6.865497 0.000000
      vertex 1.365632 -6.865497 25.000000
    endloop
  endfacet
  facet normal 0.098017 -0.995185 0.000000
    outer loop
      vertex -0.000000 -7.000000 0.000000
      vertex 1.365632 -6.865497 25.000000
      vertex -0.000000 -7.000000 25.000000
    endloop
  endfacet
  facet normal 0.000000 0.000000 1.000000
    outer loop
      vertex 0.000000 0.000000 25.000000
      vertex -0.000000 -7.000000 25.000000
      vertex 1.365632 -6.865497 25.000000
    endloop
  endfacet
  facet normal 0.000000 -0.000000 -1.000000
    outer loop
      vertex 0.000000 0.000000 0.000000
      vertex 1.365632 -6.865497 0.000000
      vertex -0.000000 -7.000000 0.000000
    endloop
  endfacet
  facet normal 0.290285 -0.956940 0.000000
    outer loop
      vertex 1.365632 -6.865497 0.000000
      vertex 2.678784 -6.467157 0.000000
      vertex 2.678784 -6.467157 25.000000
    endloop
  endfacet
  facet normal 0.290285 -0.956940 0.000000
    outer loop
      vertex 1.365632 -6.865497 0.000000
      vertex 2.678784 -6.467157 25.000000
      vertex 1.365632 -6.865497 25.000000
    endloop
  endfacet
  facet normal 0.000000 0.000000 1.000000
    outer loop
      vertex 0.000000 0.000000 25.000000
      vertex 1.365632 -6.865497 25.000000
      vertex 2.678784 -6.467157 25.000000
    endloop
  endfacet
  facet normal 0.000000 0.000000 -1.000000
    outer loop
      vertex 0.000000 0.000000 0.000000
      vertex 2.678784 -6.467157 0.000000
      vertex 1.365632 -6.865497 0.000000
    endloop
  endfacet
  facet normal 0.471397 -0.881921 0.000000
    outer loop
      vertex 2.678784 -6.467157 0.000000
      vertex 3.888992 -5.820287 0.000000
      vertex 3.888992 -5.820287 25.000000
    endloop
  endfacet
  facet normal 0.471397 -0.881921 0.000000
    outer loop
      vertex 2.678784 -6.467157 0.000000
      vertex 3.888992 -5.820287 25.000000
      vertex 2.678784 -6.467157 25.000000
    endloop
  endfacet
  facet normal 0.000000 0.000000 1.000000
    outer loop
      vertex 0.000000 0.000000 25.000000
      vertex 2.678784 -6.467157 25.000000
      vertex 3.888992 -5.820287 25.000000
    endloop
  endfacet
  facet normal 0.000000 0.000000 -1.000000
    outer loop
      vertex 0.000000 0.000000 0.000000
      vertex 3.888992 -5.820287 0.000000
      vertex 2.678784 -6.467157 0.000000
    endloop
  endfacet
  facet normal 0.634393 -0.773010 0.000000
    outer loop
      vertex 3.888992 -5.820287 0.000000
      vertex 4.949747 -4.949747 0.000000
      vertex 4.949747 -4.949747 25.000000
    endloop
  endfacet
  facet normal 0.634393 -0.773010 0.000000
    outer loop
      vertex 3.888992 -5.820287 0.000000
      vertex 4.949747 -4.949747 25.000000
      vertex 3.888992 -5.820287 25.000000
    endloop
  endfacet
  facet normal 0.000000 0.000000 1.000000
    outer loop
      vertex 0.000000 0.000000 25.000000
      vertex 3.888992 -5.820287 25.000000
      vertex 4.949747 -4.949747 25.000000
    endloop
  endfacet
  facet normal 0.000000 0.000000 -1.000000
    outer loop
      vertex 0.000000 0.000000 0.000000
      vertex 4.949747 -4.949747 0.000000
      vertex 3.888992 -5.820287 0.000000
    endloop
  endfacet
  facet normal 0.773010 -0.634393 0.000000
    outer loop
      vertex 4.949747 -4.949747 0.000000
      vertex 5.820287 -3.888992 0.000000
      vertex 5.820287 -3.888992 25.000000
    endloop
  endfacet
  facet normal 0.773010 -0.634393 0.000000
    outer loop
      vertex 4.949747 -4.949747 0.000000
      vertex 5.820287 -3.888992 25.000000
      vertex 4.949747 -4.949747 25.000000
    endloop
  endfacet
  facet normal 0.000000 0.000000 1.000000
    outer loop
      vertex 0.000000 0.000000 25.000000
      vertex 4.949747 -4.949747 25.000000
      vertex 5.820287 -3.888992 25.000000
    endloop
  endfacet
  facet normal 0.000000 0.000000 -1.000000
    outer loop
      vertex 0.000000 0.000000 0.000000
      vertex 5.820287 -3.888992 0.000000
      vertex 4.949747 -4.949747 0.000000
    endloop
  endfacet
  facet normal 0.881921 -0.471397 0.000000
    outer loop
      vertex 5.820287 -3.888992 0.000000
      vertex 6.467157 -2.678784 0.000000
      vertex 6.467157 -2.678784 25.000000
    endloop
  endfacet
  facet normal 0.881921 -0.471397 0.000000
    outer loop
      vertex 5.820287 -3.888992 0.000000
      vertex 6.467157 -2.678784 25.000000
      vertex 5.820287 -3.888992 25.000000
    endloop
  endfacet
  facet normal 0.000000 0.000000 1.000000
    outer loop
      vertex 0.000000 0.000000 25.000000
      vertex 5.820287 -3.888992 25.000000
      vertex 6.467157 -2.678784 25.000000
    endloop
  endfacet
  facet normal 0.000000 0.000000 -1.000000
    outer loop
      vertex 0.000000 0.000000 0.000000
      vertex 6.467157 -2.678784 0.000000
      vertex 5.820287 -3.888992 0.000000
    endloop
  endfacet
  facet normal 0.956940 -0.290285 0.000000
    outer loop
      vertex 6.467157 -2.678784 0.000000
      vertex 6.865497 -1.365632 0.000000
      vertex 6.865497 -1.365632 25.000000
    endloop
  endfacet
  facet normal 0.956940 -0.290285 0.000000
    outer loop
      vertex 6.467157 -2.678784 0.000000
      vertex 6.865497 -1.365632 25.000000
      vertex 6.467157 -2.678784 25.000000
    endloop
  endfacet
  facet normal 0.000000 0.000000 1.000000
    outer loop
      vertex 0.000000 0.000000 25.000000
      vertex 6.467157 -2.678784 25.000000
      vertex 6.865497 -1.365632 25.000000
    endloop
  endfacet
  facet normal 0.000000 0.000000 -1.000000
    outer loop
      vertex 0.000000 0.000000 0.000000
      vertex 6.865497 -1.365632 0.000000
      vertex 6.467157 -2.678784 0.000000
    endloop
  endfacet
  facet normal 0.995185 -0.098017 0.000000
    outer loop
      vertex 6.865497 -1.365632 0.000000
      vertex 7.000000 -0.000000 0.000000
      vertex 7.000000 -0.000000 25.000000
    endloop
  endfacet
  facet normal 0.995185 -0.098017 0.000000
    outer loop
      vertex 6.865497 -1.365632 0.000000
      vertex 7.000000 -0.000000 25.000000
      vertex 6.865497 -1.365632 25.000000
    endloop
  endfacet
  facet normal 0.000000 0.000000 1.000000
    outer loop
      vertex 0.000000 0.000000 25.000000
      vertex 6.865497 -1.365632 25.000000
      vertex 7.000000 -0.000000 25.000000
    endloop
  endfacet
  facet normal 0.000000 0.000000 -1.000000
    outer loop
      vertex 0.000000 0.000000 0.000000
      vertex 7.000000 -0.000000 0.000000
      vertex 6.865497 -1.365632 0.000000
    endloop
  endfacet
endsolid 07_plunger_shaft
